<?xml version="1.0" standalone="no"?>
<!DOCTYPE svg PUBLIC "-//W3C//DTD SVG 20010904//EN"
 "http://www.w3.org/TR/2001/REC-SVG-20010904/DTD/svg10.dtd">
<svg version="1.0" xmlns="http://www.w3.org/2000/svg"
 width="433.000000pt" height="433.000000pt" viewBox="0 0 433.000000 433.000000"
 preserveAspectRatio="xMidYMid meet">
<metadata>
Created by potrace 1.14, written by Peter Selinger 2001-2017
</metadata>
<g transform="translate(0.000000,433.000000) scale(0.100000,-0.100000)"
fill="#000000" stroke="none">
<path d="M0 2165 l0 -2165 2165 0 2165 0 0 2165 0 2165 -2165 0 -2165 0 0
-2165z m2573 1891 c240 -51 456 -137 659 -263 98 -60 275 -202 353 -282 l49
-51 -85 0 -85 0 -49 51 c-103 105 -294 236 -450 308 -266 123 -492 174 -775
174 -283 0 -509 -51 -775 -174 -156 -72 -347 -203 -450 -308 l-49 -51 -85 0
-85 0 49 51 c78 80 255 222 353 282 204 126 424 214 654 261 169 34 166 34
418 32 202 -2 238 -5 353 -30z m-1661 -1048 c8 -14 13 -61 13 -124 l0 -100 52
42 c173 141 312 204 452 204 73 0 123 -19 169 -63 33 -32 82 -114 82 -139 0
-7 4 -19 9 -27 6 -10 22 -2 69 35 85 69 207 141 288 169 82 29 187 33 256 9
71 -24 133 -92 158 -171 39 -126 22 -263 -89 -723 -86 -359 -119 -594 -88
-634 14 -19 16 -18 82 12 37 18 73 32 79 32 7 0 21 -17 31 -37 11 -21 21 -41
23 -44 4 -8 -116 -96 -178 -131 -115 -66 -259 -87 -330 -50 -19 10 -49 40 -67
65 -64 95 -56 197 51 682 80 360 106 507 106 601 0 63 -3 77 -24 101 -22 25
-30 28 -84 26 -67 -2 -153 -32 -229 -81 l-49 -31 -18 -98 c-10 -54 -43 -197
-73 -318 -119 -483 -153 -664 -153 -818 l0 -86 -52 -17 c-33 -10 -107 -18
-197 -21 l-143 -6 7 84 c10 120 49 346 96 549 65 283 116 539 128 635 13 108
3 160 -35 193 -23 21 -33 23 -78 17 -112 -16 -275 -101 -288 -151 -4 -16 -39
-164 -78 -329 -118 -508 -146 -647 -186 -922 -4 -29 -10 -34 -57 -49 -32 -10
-104 -18 -189 -21 l-138 -6 0 25 c0 35 38 226 123 618 123 566 163 803 145
867 -12 46 -43 108 -73 148 -17 22 -21 36 -15 51 9 22 9 22 170 47 14 3 89 5
167 6 138 1 143 0 155 -21z m2783 8 c185 -40 275 -153 275 -344 0 -100 -18
-179 -61 -271 -36 -79 -156 -201 -241 -246 l-57 -30 59 -175 c92 -279 163
-426 226 -467 24 -15 29 -15 82 2 31 9 69 24 84 31 27 14 28 13 54 -33 l28
-46 -40 -34 c-21 -18 -77 -53 -124 -77 -192 -100 -353 -101 -435 -4 -77 91
-161 330 -230 651 l-17 78 -61 -3 c-58 -3 -61 -4 -69 -33 -24 -92 -93 -430
-112 -555 l-22 -145 -47 -17 c-87 -33 -347 -51 -347 -25 0 24 72 366 131 627
80 351 125 574 145 718 17 118 17 120 -4 163 -12 25 -44 70 -72 101 -54 61
-57 83 -12 92 256 51 724 73 867 42z m-2730 -2247 c223 -228 608 -413 980
-470 103 -15 387 -15 490 0 372 57 757 242 980 470 l49 51 85 0 85 0 -49 -51
c-78 -80 -255 -222 -353 -282 -202 -125 -423 -213 -662 -265 -117 -25 -141
-27 -380 -27 -239 0 -263 2 -380 27 -239 52 -460 140 -662 265 -98 60 -275
202 -353 282 l-49 51 85 0 85 0 49 -51z"/>
<path d="M3372 2873 c-13 -3 -25 -10 -27 -16 -3 -7 -20 -95 -39 -197 -20 -102
-48 -242 -64 -312 l-29 -128 56 0 c31 0 72 5 92 10 49 14 121 79 159 144 63
111 89 306 54 409 -23 68 -62 97 -127 96 -29 -1 -62 -4 -75 -6z"/>
</g>
</svg>
